<svg id="Layer_1" data-name="Layer 1" xmlns="http://www.w3.org/2000/svg" viewBox="0 0 640 204"><defs><style>.cls-1,.cls-2{fill:#505050;}.cls-1{fill-rule:evenodd;}</style></defs><title>Unosquare logo</title><path class="cls-1" d="M281.66,62.49a15.38,15.38,0,0,0-3.46-4.71,21.94,21.94,0,0,0-4.9-3.31c-1.87-.91-3.74-1.73-5.66-2.5s-3.79-1.44-5.62-2.16a28.79,28.79,0,0,1-4.9-2.35,12.14,12.14,0,0,1-3.5-3,7.3,7.3,0,0,1-.67-7.3,6.3,6.3,0,0,1,2.11-2.45,10.69,10.69,0,0,1,3.55-1.59,19.23,19.23,0,0,1,4.95-.58,32.19,32.19,0,0,1,5.62.48A42.72,42.72,0,0,1,273.45,34c1.2.38,2.2.77,3,1.06a4.68,4.68,0,0,0,1.77.48,1.09,1.09,0,0,0,.72-.24,2.43,2.43,0,0,0,.58-.81,8.81,8.81,0,0,0,.33-1.45c0-.58.09-1.29.09-2.11s0-1.39-.09-1.92-.15-.91-.24-1.29a5.88,5.88,0,0,0-.34-1,2.49,2.49,0,0,0-1-.76,19.11,19.11,0,0,0-2.16-.86c-1-.29-2.11-.63-3.46-.92s-2.88-.48-4.56-.67a45.15,45.15,0,0,0-5-.29A31.91,31.91,0,0,0,253,24.73a22.13,22.13,0,0,0-7.2,3.85,15.29,15.29,0,0,0-4.32,5.52A15.85,15.85,0,0,0,240,40.72a16,16,0,0,0,1.29,6.73,15.61,15.61,0,0,0,3.5,4.85,21,21,0,0,0,4.95,3.41,49.46,49.46,0,0,0,5.67,2.5c1.92.77,3.75,1.44,5.57,2.11a29.48,29.48,0,0,1,4.9,2.36,12.74,12.74,0,0,1,3.5,3,6.8,6.8,0,0,1,1.34,4.18,8.47,8.47,0,0,1-.86,3.94,7,7,0,0,1-2.5,2.69,13.09,13.09,0,0,1-3.84,1.64,19.73,19.73,0,0,1-4.9.53,18.59,18.59,0,0,1-6.43-1,26.85,26.85,0,0,1-4.85-2.11,37.87,37.87,0,0,1-3.4-2.11,4.66,4.66,0,0,0-2.12-1,1.41,1.41,0,0,0-.82.24,1.89,1.89,0,0,0-.58.82,8.69,8.69,0,0,0-.33,1.44,14.61,14.61,0,0,0-.09,2.16,12.37,12.37,0,0,0,.34,3.36,4.08,4.08,0,0,0,1.06,2,10,10,0,0,0,2.4,1.64,25.81,25.81,0,0,0,3.94,1.78A33.17,33.17,0,0,0,253,87.32a31.09,31.09,0,0,0,6.14.53,34,34,0,0,0,9.65-1.25A21.82,21.82,0,0,0,276.38,83a16.21,16.21,0,0,0,4.9-5.91A18.13,18.13,0,0,0,283,69,15,15,0,0,0,281.66,62.49Z"/><path class="cls-1" d="M338.13,67.15a53.38,53.38,0,0,1-4.66,5.43,29.29,29.29,0,0,1-4.18,3.55,14.72,14.72,0,0,1-3.89,1.92,14.12,14.12,0,0,1-4,.58,10.87,10.87,0,0,1-6.77-2,13.86,13.86,0,0,1-4.32-5.29A24.5,24.5,0,0,1,308,63.88a58.74,58.74,0,0,1-.62-8.79,42.48,42.48,0,0,1,.77-8.22,25,25,0,0,1,2.49-7.2,15.57,15.57,0,0,1,4.47-5.19,11.36,11.36,0,0,1,6.72-2A13.55,13.55,0,0,1,330,35.39a42.72,42.72,0,0,1,8.11,8.26ZM350.42,25.4a1.8,1.8,0,0,0-.29-1,2.48,2.48,0,0,0-.86-.62,6.85,6.85,0,0,0-1.68-.39c-.67,0-1.53-.09-2.5-.09s-2,0-2.64.09a6.71,6.71,0,0,0-1.67.39,1.93,1.93,0,0,0-1,.72,1.81,1.81,0,0,0-.29,1v7.83q-2.73-2.66-5-4.61a31.21,31.21,0,0,0-4.56-3.12,21.82,21.82,0,0,0-4.56-1.73,20.25,20.25,0,0,0-4.9-.58,24.84,24.84,0,0,0-10.95,2.31,21.14,21.14,0,0,0-7.92,6.63,30,30,0,0,0-4.85,10.43,52.75,52.75,0,0,0-1.63,13.69,55.12,55.12,0,0,0,1.29,12.16,28.94,28.94,0,0,0,4.13,10,20.51,20.51,0,0,0,7.3,6.82,21.8,21.8,0,0,0,10.85,2.5,23.63,23.63,0,0,0,4.9-.48,17.67,17.67,0,0,0,4.7-1.64,29.53,29.53,0,0,0,4.75-3,46.27,46.27,0,0,0,5.09-4.56v32a1.72,1.72,0,0,0,.23,1,2.51,2.51,0,0,0,1,.72,11,11,0,0,0,1.87.38,24.44,24.44,0,0,0,3,.15,23.76,23.76,0,0,0,2.93-.15,10.84,10.84,0,0,0,1.87-.38,4.82,4.82,0,0,0,1-.67,2,2,0,0,0,.33-1Z"/><path class="cls-1" d="M424.31,25.35a1.41,1.41,0,0,0-.34-.86,3.37,3.37,0,0,0-1-.67,7.74,7.74,0,0,0-1.87-.43c-.77,0-1.78-.09-2.93-.09s-2.26,0-3,.09a7.89,7.89,0,0,0-1.87.43,2.42,2.42,0,0,0-1,.67,1.31,1.31,0,0,0-.24.86V67.58a44.54,44.54,0,0,1-8.16,8.26,12.82,12.82,0,0,1-7.69,2.79,10.75,10.75,0,0,1-5.23-1.2A10.15,10.15,0,0,1,387.25,74a16.5,16.5,0,0,1-2.16-5.38,39.55,39.55,0,0,1-.72-8.4V25.35a1.37,1.37,0,0,0-.29-.86,2.49,2.49,0,0,0-1-.67,8.27,8.27,0,0,0-1.92-.43c-.77,0-1.77-.09-2.93-.09s-2.21,0-3,.09a8.34,8.34,0,0,0-1.92.43,2.49,2.49,0,0,0-1,.67,1.34,1.34,0,0,0-.23.86V61.48a48.86,48.86,0,0,0,1.05,11,21.43,21.43,0,0,0,3.6,7.93,17.21,17.21,0,0,0,6.53,5.43,23.94,23.94,0,0,0,20-.43,35.49,35.49,0,0,0,10-7.69v8a1.69,1.69,0,0,0,.19.91,1.78,1.78,0,0,0,.86.62,6,6,0,0,0,1.68.39,23.19,23.19,0,0,0,2.83.14,20.63,20.63,0,0,0,2.59-.14,6.81,6.81,0,0,0,1.73-.39,2.32,2.32,0,0,0,.91-.62,1.38,1.38,0,0,0,.29-.91Z"/><path class="cls-1" d="M479.06,71A31.84,31.84,0,0,1,472,76.75a14.85,14.85,0,0,1-7.3,1.88c-3.27,0-5.76-.77-7.54-2.35a7.81,7.81,0,0,1-2.69-6.35,8.6,8.6,0,0,1,.92-4.08,8.09,8.09,0,0,1,2.93-3.08,15.14,15.14,0,0,1,5-1.92,34.36,34.36,0,0,1,7.15-.67h8.55Zm12.29-25.32A34.46,34.46,0,0,0,490.1,36,16.61,16.61,0,0,0,486,29a18.08,18.08,0,0,0-7.3-4.28,35.88,35.88,0,0,0-10.9-1.49A32.69,32.69,0,0,0,461,24a42.44,42.44,0,0,0-6.25,1.77,30.67,30.67,0,0,0-5,2.35,17.39,17.39,0,0,0-3.08,2.16A3.84,3.84,0,0,0,445.5,32a9.23,9.23,0,0,0-.24,2.55,10.47,10.47,0,0,0,.09,1.78,4,4,0,0,0,.44,1.3,2,2,0,0,0,.67.76,1.36,1.36,0,0,0,.91.24,5,5,0,0,0,2.3-1c1.06-.62,2.35-1.35,3.89-2.12a39.87,39.87,0,0,1,5.38-2.11,24.27,24.27,0,0,1,7-1,18.75,18.75,0,0,1,6.1.92,9.81,9.81,0,0,1,4,2.59,10.52,10.52,0,0,1,2.25,4.37,22.52,22.52,0,0,1,.72,6V51h-8A57.11,57.11,0,0,0,459,52.16a28.84,28.84,0,0,0-9.12,3.6,16.57,16.57,0,0,0-5.72,6,17.12,17.12,0,0,0-2,8.5,18.7,18.7,0,0,0,1.44,7.5,15.11,15.11,0,0,0,4,5.52A17.5,17.5,0,0,0,454,86.65a26.45,26.45,0,0,0,8.3,1.2,25.6,25.6,0,0,0,9.89-1.92,22.86,22.86,0,0,0,8.5-6.15v6.05a1.41,1.41,0,0,0,.53,1.25,3.29,3.29,0,0,0,1.68.58,18.36,18.36,0,0,0,3.12.19,17.32,17.32,0,0,0,3.07-.19,3.65,3.65,0,0,0,1.63-.58,1.45,1.45,0,0,0,.62-1.2Z"/><path class="cls-1" d="M550.05,27.27a3.94,3.94,0,0,0-.14-1.2,6.59,6.59,0,0,0-.24-.68,1.47,1.47,0,0,0-.53-.58,5.19,5.19,0,0,0-1.39-.58c-.67-.19-1.44-.34-2.25-.52s-1.59-.24-2.35-.34-1.44-.09-2-.09a18.06,18.06,0,0,0-3.94.48,14.39,14.39,0,0,0-3.93,1.63,24.1,24.1,0,0,0-4.18,3.32,47.83,47.83,0,0,0-4.75,5.43V25.35a1.33,1.33,0,0,0-.29-.86,2.65,2.65,0,0,0-.86-.67,5.65,5.65,0,0,0-1.68-.43c-.72,0-1.63-.09-2.69-.09s-2.06,0-2.73.09a6.46,6.46,0,0,0-1.73.43,1.78,1.78,0,0,0-.91.67,1.62,1.62,0,0,0-.19.86V85.79a1.36,1.36,0,0,0,.24.91,2.13,2.13,0,0,0,1,.62,8,8,0,0,0,1.92.39,25.71,25.71,0,0,0,3,.14,27.53,27.53,0,0,0,3.07-.14,8.11,8.11,0,0,0,1.88-.39,2.53,2.53,0,0,0,1-.62,1.37,1.37,0,0,0,.29-.91V46.06c1.59-2.5,3-4.66,4.37-6.39a28.12,28.12,0,0,1,3.75-4.18,13.2,13.2,0,0,1,3.46-2.26,8.07,8.07,0,0,1,3.36-.72,11.55,11.55,0,0,1,2.59.29c.82.19,1.59.39,2.26.58s1.25.43,1.78.62a3.88,3.88,0,0,0,1.35.29,1.13,1.13,0,0,0,.81-.29,2.61,2.61,0,0,0,.53-.92,8.3,8.3,0,0,0,.24-1.44c0-.58.09-1.34.09-2.21S550.05,27.85,550.05,27.27Z"/><path class="cls-1" d="M570,47.89a18.69,18.69,0,0,1,1.2-5.82,13.63,13.63,0,0,1,3-4.9,14.8,14.8,0,0,1,4.84-3.36,16.17,16.17,0,0,1,6.73-1.3c5,0,8.74,1.39,11.28,4.09s3.75,6.49,3.65,11.29Zm43,2.69A36.16,36.16,0,0,0,611.47,40a23.69,23.69,0,0,0-4.7-8.65,22.51,22.51,0,0,0-8.16-5.86,30.21,30.21,0,0,0-12.06-2.21,30.68,30.68,0,0,0-12,2.26A25.86,25.86,0,0,0,565.47,32a28,28,0,0,0-5.81,10.23,42.78,42.78,0,0,0-2,13.6,45.24,45.24,0,0,0,1.92,14,25.12,25.12,0,0,0,5.66,10,23.31,23.31,0,0,0,9.31,6,37.27,37.27,0,0,0,12.87,2,35.6,35.6,0,0,0,8-.86A51.39,51.39,0,0,0,602,85.06a25.92,25.92,0,0,0,4.61-2.2,13.69,13.69,0,0,0,2.11-1.54,4.57,4.57,0,0,0,.62-.76,5.13,5.13,0,0,0,.34-.92c0-.34.09-.72.14-1.2a14,14,0,0,0,.09-1.53c0-.82,0-1.54-.09-2.12a12.07,12.07,0,0,0-.29-1.34,2.11,2.11,0,0,0-.58-.72,1.47,1.47,0,0,0-.76-.24,5.07,5.07,0,0,0-2.36,1A34.07,34.07,0,0,1,602,75.55a35,35,0,0,1-5.61,2.11,24.63,24.63,0,0,1-7.34,1,23.2,23.2,0,0,1-8.93-1.49,14.2,14.2,0,0,1-5.86-4.38A17.09,17.09,0,0,1,570.94,66a35.49,35.49,0,0,1-1-8.89h38.79A4.4,4.4,0,0,0,611.71,56,4.26,4.26,0,0,0,613,52.5Z"/><path class="cls-1" d="M76.38,25.35a1.37,1.37,0,0,0-.33-.86,3.43,3.43,0,0,0-1-.67,7.87,7.87,0,0,0-1.88-.43c-.76,0-1.78-.09-2.93-.09s-2.26,0-3,.09a7.88,7.88,0,0,0-1.88.43,2.5,2.5,0,0,0-1,.67,1.3,1.3,0,0,0-.24.86V67.58a44.35,44.35,0,0,1-8.16,8.26,12.8,12.8,0,0,1-7.68,2.79A10.73,10.73,0,0,1,43,77.43,10.16,10.16,0,0,1,39.31,74a16.49,16.49,0,0,1-2.16-5.38,39.06,39.06,0,0,1-.72-8.4V25.35a1.33,1.33,0,0,0-.29-.86,2.46,2.46,0,0,0-1-.67,8.33,8.33,0,0,0-1.92-.43c-.76,0-1.78-.09-2.93-.09s-2.2,0-3,.09a8.33,8.33,0,0,0-1.92.43,2.45,2.45,0,0,0-1,.67,1.3,1.3,0,0,0-.24.86V61.48a48.43,48.43,0,0,0,1.06,11,21.3,21.3,0,0,0,3.6,7.93,17.25,17.25,0,0,0,6.53,5.43,22.32,22.32,0,0,0,10,2,22.25,22.25,0,0,0,10-2.4,35.4,35.4,0,0,0,10-7.69v8a1.69,1.69,0,0,0,.19.91,1.76,1.76,0,0,0,.86.62,5.84,5.84,0,0,0,1.68.39,23,23,0,0,0,2.83.14,20.49,20.49,0,0,0,2.59-.14,6.66,6.66,0,0,0,1.73-.39,2.22,2.22,0,0,0,.91-.62,1.38,1.38,0,0,0,.29-.91Z"/><path class="cls-1" d="M148.75,49.47a47.44,47.44,0,0,0-1.11-10.86,22.24,22.24,0,0,0-3.55-7.93,18.69,18.69,0,0,0-6.58-5.38,22,22,0,0,0-9.94-2,22.54,22.54,0,0,0-10,2.45,36.19,36.19,0,0,0-9.94,7.64v-8a1.33,1.33,0,0,0-.29-.86,2.52,2.52,0,0,0-.86-.67,5.66,5.66,0,0,0-1.68-.43c-.72,0-1.63-.09-2.69-.09s-2.06,0-2.73.09a6.48,6.48,0,0,0-1.73.43,1.78,1.78,0,0,0-.91.67,1.62,1.62,0,0,0-.19.86V85.79a1.36,1.36,0,0,0,.24.91,2.2,2.2,0,0,0,1,.62,8.05,8.05,0,0,0,1.92.39,25.78,25.78,0,0,0,3,.14,27.73,27.73,0,0,0,3.08-.14,8.12,8.12,0,0,0,1.87-.39,2.43,2.43,0,0,0,1-.62,1.38,1.38,0,0,0,.29-.91V44a42.58,42.58,0,0,1,8.07-8.55,13,13,0,0,1,7.73-2.94,11.52,11.52,0,0,1,5.23,1.21,10.18,10.18,0,0,1,3.69,3.46,17.48,17.48,0,0,1,2.16,5.38,38.13,38.13,0,0,1,.76,8.21v35a1.41,1.41,0,0,0,.29.91,2.19,2.19,0,0,0,1,.62,7,7,0,0,0,1.87.39,32.64,32.64,0,0,0,6.05,0,8,8,0,0,0,1.87-.39,2.52,2.52,0,0,0,1-.62,1.41,1.41,0,0,0,.29-.91Z"/><path class="cls-1" d="M214.16,65a20,20,0,0,1-3.36,7.25A15.43,15.43,0,0,1,205,76.95a21.78,21.78,0,0,1-17.13-.15,14.92,14.92,0,0,1-5.62-5,20.14,20.14,0,0,1-3-7.35,44.71,44.71,0,0,1-.86-9,34.49,34.49,0,0,1,1.11-9.17,20.77,20.77,0,0,1,3.36-7.3,15.52,15.52,0,0,1,5.76-4.76,19.19,19.19,0,0,1,8.36-1.68,18.61,18.61,0,0,1,8.79,1.88,14.86,14.86,0,0,1,5.62,5,21.12,21.12,0,0,1,3,7.4,44,44,0,0,1,.92,8.93A39.77,39.77,0,0,1,214.16,65Zm11.47-23.25a26.48,26.48,0,0,0-5.66-10,24.23,24.23,0,0,0-9.36-6.29,36.77,36.77,0,0,0-13.21-2.17,35.21,35.21,0,0,0-13.73,2.45,26.65,26.65,0,0,0-9.79,6.77A28.33,28.33,0,0,0,168,42.93a43,43,0,0,0-1.92,13.21,44,44,0,0,0,1.82,13.31,26.48,26.48,0,0,0,5.62,10,24.21,24.21,0,0,0,9.37,6.25,36.82,36.82,0,0,0,13.25,2.16,35.61,35.61,0,0,0,13.68-2.45,26.89,26.89,0,0,0,9.84-6.82,29,29,0,0,0,5.9-10.38,43.23,43.23,0,0,0,2-13.26A43.31,43.31,0,0,0,225.63,41.73Z"/><rect class="cls-2" x="33.36" y="106.3" width="12.29" height="12.3"/><rect class="cls-2" x="61.02" y="106.3" width="12.29" height="12.3"/><rect class="cls-2" x="89.34" y="127.82" width="12.29" height="12.3"/><rect class="cls-2" x="117.66" y="106.3" width="12.3" height="12.3"/><rect class="cls-2" x="171.63" y="106.3" width="12.3" height="12.3"/><rect class="cls-2" x="199.96" y="127.82" width="12.3" height="12.3"/><rect class="cls-2" x="228.28" y="146.27" width="12.29" height="12.3"/><rect class="cls-2" x="257" y="127.82" width="12.29" height="12.3"/><rect class="cls-2" x="285.33" y="127.82" width="12.29" height="12.3"/><rect class="cls-2" x="313.65" y="146.27" width="12.29" height="12.3"/><rect class="cls-2" x="342.65" y="167.79" width="12.29" height="12.3"/><rect class="cls-2" x="33.36" y="127.82" width="12.29" height="12.3"/><rect class="cls-2" x="61.02" y="127.82" width="12.29" height="12.3"/><rect class="cls-2" x="89.34" y="146.27" width="12.29" height="12.3"/><rect class="cls-2" x="117.66" y="127.82" width="12.3" height="12.3"/><rect class="cls-2" x="171.63" y="127.82" width="12.3" height="12.3"/><rect class="cls-2" x="199.96" y="146.27" width="12.3" height="12.3"/><rect class="cls-2" x="228.28" y="167.79" width="12.29" height="12.3"/><rect class="cls-2" x="257" y="146.27" width="12.29" height="12.3"/><rect class="cls-2" x="285.33" y="146.27" width="12.29" height="12.3"/><rect class="cls-2" x="313.65" y="167.79" width="12.29" height="12.3"/></svg>